<mxfile host="app.diagrams.net" modified="2020-11-12T00:45:50.953Z" agent="5.0 (Windows NT 10.0; Win64; x64) AppleWebKit/537.36 (KHTML, like Gecko) Chrome/86.0.4240.183 Safari/537.36 Edg/86.0.622.63" etag="vDrXpJsOGJN8EsW2Ti-5" version="13.9.2" type="github">
  <diagram id="fmgWvmR4kwv9skxYVAen" name="Page-1">
    <mxGraphModel dx="868" dy="520" grid="1" gridSize="10" guides="1" tooltips="1" connect="1" arrows="1" fold="1" page="1" pageScale="1" pageWidth="827" pageHeight="1169" math="0" shadow="0">
      <root>
        <mxCell id="0" />
        <mxCell id="1" parent="0" />
        <mxCell id="el8KkxL4F5QqvecfVmVy-1" value="Inicio" style="ellipse;whiteSpace=wrap;html=1;" vertex="1" parent="1">
          <mxGeometry x="340" y="20" width="120" height="80" as="geometry" />
        </mxCell>
        <mxCell id="el8KkxL4F5QqvecfVmVy-2" value="" style="endArrow=classic;html=1;" edge="1" parent="1">
          <mxGeometry width="50" height="50" relative="1" as="geometry">
            <mxPoint x="399.5" y="100" as="sourcePoint" />
            <mxPoint x="400" y="150" as="targetPoint" />
          </mxGeometry>
        </mxCell>
        <mxCell id="el8KkxL4F5QqvecfVmVy-5" style="edgeStyle=orthogonalEdgeStyle;rounded=1;orthogonalLoop=1;jettySize=auto;html=1;" edge="1" parent="1" source="el8KkxL4F5QqvecfVmVy-3">
          <mxGeometry relative="1" as="geometry">
            <mxPoint x="450" y="260" as="targetPoint" />
          </mxGeometry>
        </mxCell>
        <mxCell id="el8KkxL4F5QqvecfVmVy-3" value="Suma = 0;&lt;br&gt;n = 0;" style="rounded=0;whiteSpace=wrap;html=1;" vertex="1" parent="1">
          <mxGeometry x="340" y="150" width="120" height="60" as="geometry" />
        </mxCell>
        <mxCell id="el8KkxL4F5QqvecfVmVy-4" value="" style="endArrow=classic;html=1;strokeColor=none;rounded=1;" edge="1" parent="1" source="el8KkxL4F5QqvecfVmVy-6">
          <mxGeometry width="50" height="50" relative="1" as="geometry">
            <mxPoint x="400" y="240" as="sourcePoint" />
            <mxPoint x="460" y="300" as="targetPoint" />
            <Array as="points">
              <mxPoint x="400" y="260" />
              <mxPoint x="460" y="260" />
            </Array>
          </mxGeometry>
        </mxCell>
        <mxCell id="el8KkxL4F5QqvecfVmVy-9" style="edgeStyle=orthogonalEdgeStyle;rounded=1;orthogonalLoop=1;jettySize=auto;html=1;" edge="1" parent="1" source="el8KkxL4F5QqvecfVmVy-6" target="el8KkxL4F5QqvecfVmVy-10">
          <mxGeometry relative="1" as="geometry">
            <mxPoint x="370" y="350" as="targetPoint" />
          </mxGeometry>
        </mxCell>
        <mxCell id="el8KkxL4F5QqvecfVmVy-6" value="n = n + 1;&lt;br&gt;Suma = Suma + n" style="rounded=0;whiteSpace=wrap;html=1;" vertex="1" parent="1">
          <mxGeometry x="390" y="260" width="120" height="60" as="geometry" />
        </mxCell>
        <mxCell id="el8KkxL4F5QqvecfVmVy-7" value="" style="endArrow=classic;html=1;strokeColor=none;rounded=1;" edge="1" parent="1" target="el8KkxL4F5QqvecfVmVy-6">
          <mxGeometry width="50" height="50" relative="1" as="geometry">
            <mxPoint x="400" y="240" as="sourcePoint" />
            <mxPoint x="460" y="300" as="targetPoint" />
            <Array as="points" />
          </mxGeometry>
        </mxCell>
        <mxCell id="el8KkxL4F5QqvecfVmVy-12" style="edgeStyle=orthogonalEdgeStyle;rounded=1;orthogonalLoop=1;jettySize=auto;html=1;exitX=0.5;exitY=1;exitDx=0;exitDy=0;entryX=0.5;entryY=0;entryDx=0;entryDy=0;" edge="1" parent="1" source="el8KkxL4F5QqvecfVmVy-10" target="el8KkxL4F5QqvecfVmVy-11">
          <mxGeometry relative="1" as="geometry" />
        </mxCell>
        <mxCell id="el8KkxL4F5QqvecfVmVy-13" style="edgeStyle=orthogonalEdgeStyle;rounded=1;orthogonalLoop=1;jettySize=auto;html=1;" edge="1" parent="1" source="el8KkxL4F5QqvecfVmVy-10">
          <mxGeometry relative="1" as="geometry">
            <mxPoint x="400" y="230" as="targetPoint" />
            <Array as="points">
              <mxPoint x="250" y="400" />
              <mxPoint x="250" y="230" />
            </Array>
          </mxGeometry>
        </mxCell>
        <mxCell id="el8KkxL4F5QqvecfVmVy-10" value="n &amp;lt;= 50;" style="rhombus;whiteSpace=wrap;html=1;" vertex="1" parent="1">
          <mxGeometry x="330" y="360" width="84" height="80" as="geometry" />
        </mxCell>
        <mxCell id="el8KkxL4F5QqvecfVmVy-16" style="edgeStyle=orthogonalEdgeStyle;rounded=1;orthogonalLoop=1;jettySize=auto;html=1;" edge="1" parent="1" source="el8KkxL4F5QqvecfVmVy-11">
          <mxGeometry relative="1" as="geometry">
            <mxPoint x="374" y="560" as="targetPoint" />
          </mxGeometry>
        </mxCell>
        <mxCell id="el8KkxL4F5QqvecfVmVy-11" value="muestra Suma" style="shape=parallelogram;perimeter=parallelogramPerimeter;whiteSpace=wrap;html=1;fixedSize=1;" vertex="1" parent="1">
          <mxGeometry x="314" y="470" width="120" height="60" as="geometry" />
        </mxCell>
        <mxCell id="el8KkxL4F5QqvecfVmVy-14" value="Si" style="text;html=1;align=center;verticalAlign=middle;resizable=0;points=[];autosize=1;" vertex="1" parent="1">
          <mxGeometry x="385" y="440" width="30" height="20" as="geometry" />
        </mxCell>
        <mxCell id="el8KkxL4F5QqvecfVmVy-15" value="No" style="text;html=1;align=center;verticalAlign=middle;resizable=0;points=[];autosize=1;" vertex="1" parent="1">
          <mxGeometry x="275" y="380" width="30" height="20" as="geometry" />
        </mxCell>
        <mxCell id="el8KkxL4F5QqvecfVmVy-17" value="FIN" style="ellipse;whiteSpace=wrap;html=1;" vertex="1" parent="1">
          <mxGeometry x="312" y="560" width="120" height="60" as="geometry" />
        </mxCell>
      </root>
    </mxGraphModel>
  </diagram>
</mxfile>
